<svg
   xmlns:dc="http://purl.org/dc/elements/1.1/"
   xmlns:cc="http://creativecommons.org/ns#"
   xmlns:rdf="http://www.w3.org/1999/02/22-rdf-syntax-ns#"
   xmlns:svg="http://www.w3.org/2000/svg"
   xmlns="http://www.w3.org/2000/svg"
   viewBox="0 0 250.77333 240"
   height="240"
   width="250.77333"
   xml:space="preserve"
   id="svg2"
   version="1.1"><metadata
     id="metadata8"><rdf:RDF><cc:Work
         rdf:about=""><dc:format>image/svg+xml</dc:format><dc:type
           rdf:resource="http://purl.org/dc/dcmitype/StillImage" /></cc:Work></rdf:RDF></metadata><defs
     id="defs6" /><g
     transform="matrix(1.3333333,0,0,-1.3333333,0,240)"
     id="g10"><g
       transform="scale(0.1)"
       id="g12"><path
         id="path14"
         style="fill:#ef3420;fill-opacity:1;fill-rule:nonzero;stroke:none"
         d="M 1078.26,1275.21 C 532.539,919.07 28.4375,907.25 28.4375,907.25 c 0,0 362.1055,-80.465 388.6055,-236.301 C 449.359,480.859 561.578,484.41 694.27,422.891 814.574,367.109 766.832,214.711 766.832,214.711 916,356.48 1092.51,538.809 1092.51,538.809" /><path
         id="path16"
         style="fill:#434042;fill-opacity:1;fill-rule:nonzero;stroke:none"
         d="m 766.836,186.27 c -5.195,0 -10.418,1.421 -15.055,4.3 -11,6.852 -15.968,20.282 -12.082,32.629 1.582,5.199 38.524,129.422 -57.414,173.891 -26.109,12.109 -51.605,21.672 -76.242,30.93 C 509.047,464.41 417.465,498.801 389,666.18 369.918,778.539 117.793,858.254 22.2695,879.48 8.24609,882.598 -1.25391,895.691 0.132813,909.996 c 1.390627,14.32 13.249987,25.332 27.613287,25.68 4.9687,0.125 503.0509,16.219 1034.9639,363.354 13.13,8.57 30.74,4.89 39.38,-8.28 8.58,-13.15 4.86,-30.77 -8.28,-39.36 C 718.063,1006.16 365.305,922.246 174.926,893.594 287.227,852.805 427.105,781.531 445.109,675.699 468.047,540.57 530.902,516.98 626.012,481.27 c 25.633,-9.622 52.133,-19.559 80.215,-32.579 72.855,-33.769 96.191,-99.402 98.464,-158.121 131.77,128.051 265.849,266.43 267.369,268.012 10.95,11.297 28.95,11.578 40.23,0.656 11.3,-10.91 11.58,-28.929 0.66,-40.207 -1.78,-1.82 -178.653,-184.383 -326.532,-324.929 -5.418,-5.161 -12.473,-7.832 -19.582,-7.832" /><path
         id="path18"
         style="fill:#434042;fill-opacity:1;fill-rule:nonzero;stroke:none"
         d="m 1159.67,0.0117188 c -1.64,0 -3.27,0.1484372 -4.94,0.4375002 C 1139.26,3.16016 1128.9,17.9219 1131.64,33.3906 l 72.08,409.5504 c 2.73,15.481 17.47,25.758 32.92,23.09 15.47,-2.73 25.83,-17.48 23.11,-32.941 L 1187.67,23.5313 c -2.44,-13.81255 -14.45,-23.5195812 -28,-23.5195812" /><path
         id="path20"
         style="fill:#ffffff;fill-opacity:1;fill-rule:nonzero;stroke:none"
         d="m 1819.19,810.496 c 0,-37.066 -30.05,-67.117 -67.12,-67.117 -37.08,0 -67.13,30.051 -67.13,67.117 0,37.082 30.05,67.133 67.13,67.133 37.07,0 67.12,-30.051 67.12,-67.133" /><path
         id="path22"
         style="fill:#434042;fill-opacity:1;fill-rule:nonzero;stroke:none"
         d="m 1752.08,849.18 c -21.34,0 -38.69,-17.344 -38.69,-38.672 0,-21.336 17.35,-38.68 38.69,-38.68 21.33,0 38.66,17.344 38.66,38.68 0,21.328 -17.33,38.672 -38.66,38.672 z m 0,-134.239 c -52.69,0 -95.59,42.868 -95.59,95.567 0,52.683 42.9,95.555 95.59,95.555 52.69,0 95.55,-42.872 95.55,-95.555 0,-52.699 -42.86,-95.567 -95.55,-95.567" /><path
         id="path24"
         style="fill:#5fa932;fill-opacity:1;fill-rule:nonzero;stroke:none"
         d="m 1383.78,1757.32 c 0,0 -386.464,-482.96 -386.464,-853.082 0,-579.566 386.464,-510.968 386.464,-510.968 0,0 341.09,6.269 322.86,582.394 -10.87,343.446 -322.86,781.656 -322.86,781.656" /><path
         id="path26"
         style="fill:#434042;fill-opacity:1;fill-rule:nonzero;stroke:none"
         d="m 1381.71,1683.82 c -93.83,-128.14 -341.73,-493.8 -341.73,-779.586 0,-424.925 214.52,-470.812 306.73,-470.812 18.25,0 29.7,1.867 29.8,1.879 2.06,0.347 4.37,0.59 6.48,0.621 11.83,0.406 297.51,16.277 281,538.391 -8.27,261.687 -203.34,587.797 -282.28,709.507 z m -35,-1335.73 c -91.96,0 -392.05,40.101 -392.05,556.144 0,380.726 379.64,859.536 395.8,879.736 8.37,10.44 21.17,16.54 34.5,15.99 13.39,-0.37 25.8,-6.99 33.56,-17.89 13.05,-18.32 319.62,-452.77 330.75,-805.062 7.42,-234.328 -41.53,-408.567 -145.49,-517.86 C 1512.29,362.949 1408.77,352 1388.1,350.77 c -6.25,-0.918 -20.97,-2.68 -41.39,-2.68" /><path
         id="path28"
         style="fill:#434042;fill-opacity:1;fill-rule:nonzero;stroke:none"
         d="m 1643.5,0 c -2.91,0 -5.89,0.460938 -8.83,1.42188 -14.91,4.86718 -23.09,20.91792 -18.22,35.85942 l 90.9,278.6287 -193.29,117.25 c -13.43,8.16 -17.72,25.641 -9.58,39.078 8.17,13.422 25.67,17.703 39.08,9.571 l 212.57,-128.957 c 11.3,-6.84 16.39,-20.582 12.31,-33.133 L 1670.56,19.6406 C 1666.64,7.64063 1655.47,0.0117188 1643.5,0" /><path
         id="path30"
         style="fill:#434042;fill-opacity:1;fill-rule:nonzero;stroke:none"
         d="m 1383.77,350.609 c -23.55,0 -42.67,19.09 -42.67,42.653 V 1744.28 c 0,23.56 19.12,42.66 42.67,42.66 23.55,0 42.66,-19.1 42.66,-42.66 V 393.262 c 0,-23.563 -19.11,-42.653 -42.66,-42.653" /><path
         id="path32"
         style="fill:#434042;fill-opacity:1;fill-rule:nonzero;stroke:none"
         d="m 1013.32,705.691 c -5.83,0 -11.72,1.789 -16.804,5.508 L 724.059,911.23 c -7.387,5.434 -11.719,14.086 -11.606,23.239 0.106,9.164 4.61,17.719 12.11,22.98 l 272.449,191.001 c 12.888,9.05 30.588,5.87 39.608,-6.96 9.03,-12.86 5.92,-30.6 -6.94,-39.61 L 789.668,933.633 1030.18,757.059 c 12.66,-9.309 15.39,-27.09 6.08,-39.758 -5.56,-7.59 -14.19,-11.61 -22.94,-11.61" /><path
         id="path34"
         style="fill:#434042;fill-opacity:1;fill-rule:nonzero;stroke:none"
         d="m 1723.86,840.32 c -5.75,0 -11.54,1.743 -16.55,5.332 -12.79,9.172 -15.7,26.946 -6.54,39.692 l 111.16,154.826 -131.69,85.67 c -13.16,8.57 -16.88,26.2 -8.3,39.36 8.56,13.16 26.14,16.91 39.36,8.34 l 156.63,-101.93 c 6.5,-4.25 11,-10.96 12.41,-18.6 1.45,-7.63 -0.3,-15.52 -4.83,-21.83 l -128.52,-179 c -5.55,-7.746 -14.27,-11.86 -23.13,-11.86" /><path
         id="path36"
         style="fill:#ffffff;fill-opacity:1;fill-rule:nonzero;stroke:none"
         d="m 1047.07,670.5 c -1.99,-39.07 -35.28,-69.148 -74.363,-67.16 -39.082,1.988 -69.152,35.281 -67.164,74.371 1.988,39.078 35.281,69.148 74.359,67.148 39.078,-1.98 69.148,-35.281 67.168,-74.359" /><path
         id="path38"
         style="fill:#434042;fill-opacity:1;fill-rule:nonzero;stroke:none"
         d="m 978.352,716.461 c -24.747,0 -43.25,-17.66 -44.387,-40.18 -0.586,-11.34 3.277,-22.203 10.859,-30.601 7.61,-8.41 18.028,-13.36 29.328,-13.942 l 2.227,-0.058 c 22.547,0 41.131,17.691 42.271,40.269 0.59,11.313 -3.28,22.172 -10.86,30.571 -7.61,8.421 -18.024,13.371 -29.333,13.941 -0.027,0 -0.078,0 -0.105,0 z m -1.973,-141.672 -5.109,0.141 c -26.504,1.351 -50.887,12.929 -68.668,32.621 -17.774,19.687 -26.801,45.121 -25.469,71.609 2.668,52.828 46.219,94.25 99.109,94.25 l 5.106,-0.14 c 26.492,-1.348 50.862,-12.93 68.662,-32.61 17.77,-19.691 26.81,-45.121 25.47,-71.621 -2.72,-52.848 -46.24,-94.25 -99.101,-94.25" /></g></g></svg>